# xmcd
#
# Track frame offsets:
#	150
#	12030
#	24252
#	36800
#	49097
#	61517
#	70025
#	82827
#	96090
#	105562
#	118062
#	124962
#	135732
#	148225
#	156165
#	162375
#	176272
#	184072
#	194735
#	205987
#	217955
#	219440
#	227635
#	234390
#	240670
#	251745
#	259782
#	268112
#	279460
#	286602
#	291882
#	298722
#	305915
#	315352
#	318857
#	324610
#
# Disc length: 4441 seconds
#
# Revision: 1
# Processed by: cddbd v1.5.2PL0 Copyright (c) Steve Scherf et al.
# Submitted via: EasyCDDAExtractor 12.0.0.1
#
DISCID=0e115724
DTITLE=Uncle Dave Macon - Keep My Skillet Good And Greasy - Disc 08
DYEAR=2004
DGENRE=Country
TTITLE0=Johnny Grey
TTITLE1=The Gayest Old Dude That's Out
TTITLE2=Come Dearest The Daylight Is Gone/Nobody's Darling But Mine
TTITLE3=Don't Look For Trouble
TTITLE4=I'm Free, I've Broken The Chain
TTITLE5=Laugh Your Blues Away
TTITLE6=Travelin' On My Mind
TTITLE7=I'm Drifting Further From You
TTITLE8=The Gray Cat On The Tennessee Farm
TTITLE9=Over The Mountain
TTITLE10=Eleven Cent Cotton
TTITLE11=Death Of John Henry (Steel Driving Man)
TTITLE12=From Jerusalem To Jericho
TTITLE13=How Beautiful Heaven Must Be
TTITLE14=(She Was Always) Chewin' Gum
TTITLE15=Cumberland Mountain Deer Race
TTITLE16=Rabbit In The Pea Patch
TTITLE17=Bully Of The Town
TTITLE18=Mountain Dew
TTITLE19=Old Maid's Love Song
TTITLE20=Rock Of Ages
TTITLE21=Keep My Skillet Good And Greasy
TTITLE22=Death Of John Henry (Steel Driving Man)
TTITLE23=That's Where The Money Goes
TTITLE24=Long John Green
TTITLE25=Lady In The Car
TTITLE26=Cotton-Eyed Joe
TTITLE27=Something's Always Sure To Tickle Me
TTITLE28=(She Was Always) Chewing Gum
TTITLE29=All In Down And Out Blues
TTITLE30=All Go Hungry Hash House
TTITLE31=Whoa Mule
TTITLE32=No One To Welcome Me Home
TTITLE33=Banjo Solo
TTITLE34=Jenny Put The Kettle On
TTITLE35=Kissin' On The Sly
EXTD=YEAR: 2004
EXTT0=
EXTT1=
EXTT2=
EXTT3=
EXTT4=
EXTT5=
EXTT6=
EXTT7=
EXTT8=
EXTT9=
EXTT10=
EXTT11=
EXTT12=
EXTT13=
EXTT14=
EXTT15=
EXTT16=
EXTT17=
EXTT18=
EXTT19=
EXTT20=
EXTT21=
EXTT22=
EXTT23=
EXTT24=
EXTT25=
EXTT26=
EXTT27=
EXTT28=
EXTT29=
EXTT30=
EXTT31=
EXTT32=
EXTT33=
EXTT34=
EXTT35=
PLAYORDER=
